<svg transform="scale(1)" version="1.1" id="Layer_1" xmlns="http://www.w3.org/2000/svg" xmlns:xlink="http://www.w3.org/1999/xlink" x="0px" y="0px" viewBox="0 0 500 500" xml:space="preserve" class="show_show__wrapper__graphic__5Waiy "><title>React</title><style type="text/css">
	.st0{fill:#ED6128;}
	.st1{fill:#68E1FD;}
	.st2{fill:#124577;}
	.st3{opacity:0.6;fill:#F2F2F2;enable-background:new    ;}
	.st4{fill:#CEE831;}
	.st5{fill:#FFA513;}
	.st6{fill:#F2F2F2;}
	.st7{opacity:0.38;}
	.st8{fill:url(#SVGID_1_);}
	.st9{fill:url(#SVGID_00000092442841731189462730000002037056204748318870_);}
	.st10{fill:none;}
	.st11{fill:#FF6161;}
	.st12{fill:#42210B;}
	.st13{fill:#F25555;}
	.st14{fill:#F7931E;}
	.st15{opacity:0.7;fill:#124577;enable-background:new    ;}
</style><path class="st0" id="Base" d="M45.9,318.8c46.7,25.1,184.3,104.4,227.6,129.5c8.2,4.7,18.3,4.7,26.4-0.1L464.7,352
	c4.7-2.7,6.3-8.8,3.5-13.5c-0.9-1.5-2.1-2.7-3.6-3.6l-232-131.4c-2.4-1.4-5.4-1.4-7.8,0l-179,101.8c-3.7,2.1-5,6.8-2.9,10.5
	C43.6,317.1,44.6,318.1,45.9,318.8z"></path><g id="Screen"><path class="st1" d="M82.7,164.7c-2.1,1.2-3.4,3.5-3.3,5.9v165.3c-0.2,3.4,3.6,6.5,6.7,4.7l67.7-38.5
		c2.7-1.6,126.6-71.3,126.6-74.4L287,54.5c0.1-1.8-1.3-3.3-3.1-3.4c-0.6,0-1.2,0.1-1.8,0.4C252,68.6,96.4,156.7,82.7,164.7z"></path><path class="st2" d="M116.4,150.1l-30.9,18.1c-0.6,0.3-1,1-1,1.7v165.2c0,0.7,0.6,1.3,1.3,1.3c0.2,0,0.5-0.1,0.7-0.2l194-112.9
		c0,0,0.1,4.7-3.6,7.1S86,340.6,86,340.6s-5.2,2.3-6.7-3.8V170.6c0-2.2,1-4.2,2.8-5.5c3-2.2,195.6-114.4,195.6-114.4s7-2.6,9.4,1.7
		l-151,86.3"></path><polygon class="st3" points="96.1,180 96.1,318.8 111,309.3 111,171.4 	"></polygon><path class="st4" d="M192.9,188.7l2.3,52.8c0,0,33.3-9.3,35.6-56.2l-1.5-9.6L192.9,188.7z"></path><path class="st5" d="M192.9,188.7l9-49.5c0,0,23.9,1.3,25.4,39.8L192.9,188.7z"></path><path class="st6" d="M187.2,251.2c-1.7,0-3.5-0.2-5.2-0.5c-11.4-2-20.8-10.6-26.5-24c-5.3-12.7-6.7-28.4-3.8-44.3
		c6.1-34.2,29-57.7,52-53.6c11.4,2,20.8,10.6,26.5,24c5.3,12.7,6.7,28.4,3.8,44.3l0,0c-2.8,15.9-9.6,30.2-18.9,40.2
		C206.7,246.4,197,251.2,187.2,251.2z M198.7,138.9c-15.7,0-32,19.7-36.6,45.4c-2.5,13.9-1.4,27.5,3.2,38.3
		c4.2,10,10.8,16.3,18.6,17.7s16.1-2.2,23.6-10.2c8-8.6,13.8-21,16.2-34.9l0,0c2.5-13.9,1.4-27.5-3.2-38.3
		c-4.2-10-10.8-16.3-18.6-17.7C200.9,139,199.8,138.9,198.7,138.9L198.7,138.9z"></path><polygon class="st3" points="118.9,168.3 118.9,281.7 131.1,273.9 131.1,161.3 	"></polygon></g><g class="st7" id="Shadow"><linearGradient id="SVGID_1_" gradientUnits="userSpaceOnUse" x1="303.9751" y1="845.6609" x2="247.1351" y2="923.681" gradientTransform="matrix(1 0 0 1 0 -498)"><stop offset="2.000000e-02" style="stop-color: rgb(66, 33, 11);"></stop><stop offset="0.2654" style="stop-color: rgb(68, 35, 13); stop-opacity: 0.7496;"></stop><stop offset="0.4036" style="stop-color: rgb(74, 43, 22); stop-opacity: 0.6085;"></stop><stop offset="0.5153" style="stop-color: rgb(85, 55, 35); stop-opacity: 0.4946;"></stop><stop offset="0.6129" style="stop-color: rgb(100, 73, 55); stop-opacity: 0.395;"></stop><stop offset="0.7011" style="stop-color: rgb(119, 96, 81); stop-opacity: 0.305;"></stop><stop offset="0.7827" style="stop-color: rgb(143, 125, 112); stop-opacity: 0.2217;"></stop><stop offset="0.8592" style="stop-color: rgb(172, 158, 150); stop-opacity: 0.1437;"></stop><stop offset="0.9297" style="stop-color: rgb(204, 197, 192); stop-opacity: 0.0717707;"></stop><stop offset="0.9965" style="stop-color: rgb(240, 240, 239); stop-opacity: 0.00357908;"></stop><stop offset="1" style="stop-color: rgb(242, 242, 242); stop-opacity: 0;"></stop></linearGradient><path class="st8" d="M228.1,422c3.2,1.9,6.3,3.6,9.5,5.4l86.2-48.9l-20.1-12.8c-6.5,5.2-28.9,14.7-36,19
		c-15.7,9.2-28.5,15.2-44.5,23.8c-2.9,1.5-5.9,2.9-8.9,4.2C218.4,416.5,223.3,419.2,228.1,422z"></path><linearGradient id="SVGID_00000000224890096865339120000016227084673040007340_" gradientUnits="userSpaceOnUse" x1="394.4144" y1="829.6059" x2="367.4344" y2="866.9859" gradientTransform="matrix(1 0 0 1 0 -498)"><stop offset="2.000000e-02" style="stop-color: rgb(66, 33, 11);"></stop><stop offset="0.2654" style="stop-color: rgb(68, 35, 13); stop-opacity: 0.7496;"></stop><stop offset="0.4036" style="stop-color: rgb(74, 43, 22); stop-opacity: 0.6085;"></stop><stop offset="0.5153" style="stop-color: rgb(85, 55, 35); stop-opacity: 0.4946;"></stop><stop offset="0.6129" style="stop-color: rgb(100, 73, 55); stop-opacity: 0.395;"></stop><stop offset="0.7011" style="stop-color: rgb(119, 96, 81); stop-opacity: 0.305;"></stop><stop offset="0.7827" style="stop-color: rgb(143, 125, 112); stop-opacity: 0.2217;"></stop><stop offset="0.8592" style="stop-color: rgb(172, 158, 150); stop-opacity: 0.1437;"></stop><stop offset="0.9297" style="stop-color: rgb(204, 197, 192); stop-opacity: 0.0717707;"></stop><stop offset="0.9965" style="stop-color: rgb(240, 240, 239); stop-opacity: 0.00357908;"></stop><stop offset="1" style="stop-color: rgb(242, 242, 242); stop-opacity: 0;"></stop></linearGradient><path d="M368.9,381.1l56-38l-26-25.3l-64.7,43.5
		C342,365.1,360.9,377.8,368.9,381.1z" style="fill: url(&quot;#SVGID_00000000224890096865339120000016227084673040007340_&quot;);"></path></g><g id="Screen_2"><path class="st5" d="M292.9,17.2c-10.8,6.4-37.6,22.2-45.6,26.9c-1.4,0.8-2.2,2.3-2.2,3.9v109.8c-0.2,2.2,2.4,4.3,4.4,3.1l45-25.6
		c1.8-0.8,3-2.6,3-4.6V19.8c0.1-1.7-1.2-3-2.9-3.1C294.1,16.6,293.4,16.8,292.9,17.2z"></path><line class="st10" x1="253.3" y1="54.5" x2="289.1" y2="34"></line><rect class="st6" x="250.6" y="43.8" transform="matrix(0.8684 -0.4959 0.4959 0.8684 13.7212 140.3363)" width="41.2" height="1"></rect><line class="st10" x1="253.3" y1="62.6" x2="289.1" y2="42.2"></line><rect class="st6" x="250.6" y="51.9" transform="matrix(0.8683 -0.4961 0.4961 0.8683 9.7202 141.4428)" width="41.2" height="1"></rect><line class="st10" x1="252.5" y1="72.8" x2="288.3" y2="52.4"></line><rect class="st6" x="249.8" y="62.1" transform="matrix(0.8684 -0.4959 0.4959 0.8684 4.5484 142.3241)" width="41.2" height="1"></rect><line class="st10" x1="252.5" y1="81" x2="288.3" y2="60.5"></line><rect class="st6" x="249.8" y="70.3" transform="matrix(0.8684 -0.4959 0.4959 0.8684 0.4863 143.4143)" width="41.2" height="1"></rect><line class="st10" x1="255.9" y1="116" x2="291.7" y2="95.6"></line><rect class="st6" x="253.2" y="105.3" transform="matrix(0.8684 -0.4959 0.4959 0.8684 -16.4323 149.6994)" width="41.2" height="1"></rect><line class="st10" x1="255.9" y1="124.2" x2="291.7" y2="103.8"></line><rect class="st6" x="253.2" y="113.5" transform="matrix(0.8684 -0.4959 0.4959 0.8684 -20.4899 150.7896)" width="41.2" height="1"></rect><line class="st10" x1="255" y1="134.4" x2="290.8" y2="114"></line><rect class="st6" x="252.3" y="123.7" transform="matrix(0.8683 -0.4961 0.4961 0.8683 -25.665 151.7478)" width="41.2" height="1"></rect><line class="st10" x1="255" y1="142.5" x2="290.8" y2="122.1"></line><rect class="st6" x="252.3" y="131.8" transform="matrix(0.8684 -0.4959 0.4959 0.8684 -29.7009 152.7395)" width="41.2" height="1"></rect><path class="st6" d="M255.8,108.9c0,0,0.6-15.7,7.2-14.5s6.6,4,10.8-0.1s2.1-14.9,8.8-14.9s5.7,12.6,5.7,12.6L255.8,108.9z"></path></g><g id="Screen_1"><path class="st4" d="M58.6,243.3l72.4-41.8c1.8-1,4.2-0.4,5.2,1.4c0.3,0.6,0.5,1.2,0.5,1.9V260c0,2.2-1.2,4.2-3.1,5.2l-71.3,40.3
		c-2.1,1.3-4.9,0.6-6.2-1.5c-0.4-0.7-0.7-1.5-0.7-2.4v-53C55.5,246.5,56.7,244.5,58.6,243.3z"></path><line class="st10" x1="93.6" y1="245.1" x2="129.4" y2="224.7"></line><rect class="st6" x="90.9" y="234.4" transform="matrix(0.8683 -0.4961 0.4961 0.8683 -101.8445 86.2636)" width="41.2" height="1"></rect><line class="st10" x1="93.6" y1="253.2" x2="129.4" y2="232.8"></line><rect class="st6" x="90.9" y="242.5" transform="matrix(0.8684 -0.4959 0.4959 0.8684 -105.8431 87.2675)" width="41.2" height="1"></rect><line class="st10" x1="92.8" y1="263.5" x2="128.6" y2="243"></line><rect class="st6" x="90" y="252.8" transform="matrix(0.8684 -0.4959 0.4959 0.8684 -111.0637 88.2015)" width="41.2" height="1"></rect><line class="st10" x1="92.8" y1="271.6" x2="128.6" y2="251.2"></line><rect class="st6" x="90" y="260.9" transform="matrix(0.8684 -0.4959 0.4959 0.8684 -115.0871 89.257)" width="41.2" height="1"></rect><path class="st6" d="M65.3,279v18.1l4.7-3v-17.7C68.4,277.2,66.8,278,65.3,279z"></path><path class="st6" d="M74.8,267.4v24.4l4.7-3v-23.7L74.8,267.4z"></path><path class="st6" d="M84.2,254.8v32l4.8-3v-31C87.4,253.6,85.8,254.2,84.2,254.8z"></path></g><g id="Pencil_Case"><path class="st1" d="M372.5,278.8v58.4c0,0,56.1,3.1,56.1,0v-58.4"></path><ellipse class="st1" cx="400.6" cy="336.7" rx="28.1" ry="12.8"></ellipse><ellipse class="st2" cx="400.6" cy="278.8" rx="28.1" ry="12.8"></ellipse><path class="st11" d="M383.1,288.7l0.2,0.1c1.1,0.4,2.2,0.7,3.3,1l-7.6-64c0,0-1.6-0.9-3.9,0.7l7.8,62L383.1,288.7z"></path><path class="st11" d="M391.8,290.7l2.4-60c0,0-1.4-1.1-4,0.1l-2,59.4C389.4,290.5,390.6,290.6,391.8,290.7z"></path><path class="st5" d="M400.6,291.6l7.7-62.6l15.6,8.3l-6.3,52.6C412.1,291.4,406.3,292,400.6,291.6z"></path></g><g id="Character"><path class="st4" d="M285.1,369.1c0,0.3-6.1,14.2-7.5,15s-5.6-1.9-7-0.3s-3.3,4.8-0.1,6.2s12.7,2.6,14.4,1.9c1.7-0.9,3.2-2,4.7-3.2
		c0,0,0.9-7.5,1.9-6.4s0.6,9,1.3,9.3c0.9,0,1.9-0.1,2.8-0.4l-0.9-23.5"></path><path class="st4" d="M311.5,356.6c-0.1,0.3-6.6,14-8,14.8s-5.5-2-7-0.6s-3.5,4.7-0.3,6.1s12.6,3.1,14.3,2.4c1.7-0.8,3.3-1.8,4.8-3
		c0,0,1.2-7.4,2.1-6.4s0.3,9.1,1,9.3c0.9,0.1,1.9,0,2.8-0.3l-0.1-23.5"></path><path class="st12" d="M288.3,241.5c0,0-19.4,99.4-17.8,122.5c0,0,3.9,15.4,37.2,10.3c0,0,2.9-11.5,1.6-31.1s-4.8-101.6-4.8-101.6
		L288.3,241.5z"></path><path class="st12" d="M291.8,359l5-118.6l20.1-1.9c0,0,8.8,30.6,6.8,45.3s2.2,34.3,3.2,44.6c0.9,9.2,1.2,25.1-2,32.2
		C314.2,363.7,302.5,362.7,291.8,359z"></path><path class="st6" d="M309.1,368.6c1.6-7.4,2.7-15,3.4-22.5c0.3-3.7,0.3-7.4,0.1-11.1c-0.3-3.8-0.9-7.6-1.6-11.4
		c-1.1-6.7-1.5-13.6-0.9-20.4c0.5-7,1.6-13.9,2.3-20.9c0.8-7.9,1-15.8-0.8-23.6c-0.2-1,1.3-1.4,1.5-0.4c3.1,13.9,0.1,28-1.2,42
		c-0.8,7.2-0.7,14.5,0.4,21.7c0.6,3.5,1.3,7,1.7,10.5c0.4,3.8,0.5,7.6,0.3,11.4c-0.4,8.5-2,16.8-3.5,25.1
		C310.4,370.1,308.9,369.6,309.1,368.6z"></path><path class="st13" d="M307.8,190.3c-2-0.8-32.6-37.2-34.1-36.5s-9.8,12.4-5.5,18.7s32.4,35.6,32.4,35.6"></path><polyline class="st2" points="266.5,217.9 273.4,215 267.5,179 248,188.1 250.2,205.1 253.1,222.4 266.5,217.9 264.4,215.2 	"></polyline><path class="st11" d="M301.4,189.7c-1.9,0.7-10.1,0.7-12.8,8.4c-1.9,5.7-3.4,11.5-4.7,17.4l-19.7-11.2c0,0-1.2,17.4,1.2,21.8
		s13.8,14.1,23.3,8.5c0,0-0.9,6.8,0,8.8s22.6,4.6,27.6-1.9s1.6-37.2,1.6-37.2"></path><path class="st14" d="M264.5,213c0.3-2.5,0.4-5,0.6-7.5c-0.7-0.5-1.3-1.1-1.9-1.8c-0.7-0.7-1.3-1.5-2-2.2c-0.4-0.8-0.8-1.7-1.3-2.5
		l-0.5-1c-0.6-1.3-1.2-3.3-2.6-3.9c-1-0.4-2.1,0.1-2.5,1c-0.1,0.1-0.1,0.3-0.1,0.5c-0.2,2.2,3.6,7-0.9,6.9c-0.8,0-1.7,0-2.5,0.1
		c-1.7,0.2-3.3,1.1-2.7,3c0.1,0.3,0.2,0.5,0.4,0.8c-1.2,0.4-1.9,1.7-1.4,2.9c0,0.1,0,0.1,0.1,0.2c0.3,0.7,0.8,1.2,1.5,1.5
		c-0.5,0.6-0.6,1.5-0.1,2.1c0.4,0.5,0.9,0.9,1.6,1c0,0.3,0,0.7,0.1,1c0.6,1.5,2.6,2.1,4,2.3c3.2,0.4,6.4,0.5,9.6,0.3
		C264,216,264.3,214.5,264.5,213z"></path><path class="st14" d="M256.4,150c-2,1.8-1.7,4.4-1,7.1c0.2,0,0.4,0.1,0.5,0.2c1.5,1,3.1,2,4.7,2.8c1.3,0.7,2.6,1.3,4,1.8
		s2.7,1.3,3.8,2.3c0.8-2.4,1.7-4.7,2.7-7c-4.7-4.3-8.6-7.4-12.5-12.4c-0.4-0.5-1.4-2.3-1.9-2.2c-0.7-0.1-1.4,0.3-1.5,1v0.1
		c-0.3,2.2,1.5,4.1,2.9,5.7C258.1,149.4,256.4,149.9,256.4,150z"></path><path class="st14" d="M257.2,151.9c0.5-0.4-0.2-1.1-0.7-0.7c-0.4,0.3-0.8,0.7-1.1,1.1c-0.5,0.6-0.8,1.2-1,1.9
		c0,0.1-0.1,0.3-0.1,0.5l0,0c0,0.1,0,0.1,0,0.2c-0.1,0.4,0.1,0.7,0.3,1c0.5,0.4,1.1,0,1.4-0.4c0.5-0.6,0.8-1.2,0.9-1.9
		c0.1-0.5,0.4-1.2,0.1-1.6L257.2,151.9z"></path><path class="st12" d="M267.8,162.9c-1.1-1.1-2.5-2-4-2.4c-2.1-0.6-4.2-0.6-5-3c-0.5-1.4,0-2.8-0.9-4.1c-0.2-0.3-0.4-0.6-0.6-0.8
		s-0.4-0.4-0.5-0.5c-0.3-0.2-0.5-0.6-0.5-1c0-0.6,0.5-1,1-1c0.1,0,0.2,0,0.3,0.1c0.4,0.2,0.7,0.4,1,0.7l0.1,0.1
		c0.6,0.4,1.2,0.9,1.7,1.4s1.1-0.3,0.7-0.7c-1.1-1-3.5-3.4-5.1-2.2c-0.5,0.3-0.8,0.8-0.7,1.4l0,0c-0.5,0.8-1,1.6-1.4,2.5
		c-0.3,0.6-0.5,1.3-0.5,1.9c0.2,0.8,0.8,1.5,1.6,1.6c0,0.2,0,0.4,0.1,0.6c0.4,1.1,1.6,1.7,2.7,1.4c0.2,0,0.3-0.1,0.3-0.3
		c0.3,0.6,0.8,1.2,1.4,1.6c1,0.6,2.1,1,3.3,1.1c1.6,0.3,3.1,1.1,4.3,2.3c0.2,0.2,0.5,0.1,0.7-0.1C268,163.3,268,163,267.8,162.9z
		 M255.3,155.7h-0.1c-0.4,0.2-0.7-1-0.7-1.2c0.1-0.5,0.3-0.9,0.6-1.3c0.2-0.5,0.5-0.9,0.7-1.3c0.2,0.4,0.5,0.8,0.8,1.2l0,0
		C256.1,153.9,255.7,154.8,255.3,155.7z M257.6,157.9c-1.4,0.2-1.6-1-1.2-2.1c0.2-0.6,0.5-1.3,0.8-1.9c0.1,0.1,0.1,0.2,0.1,0.3
		c0.5,1.2,0.2,2.5,0.6,3.8C257.9,157.9,257.7,157.8,257.6,157.9L257.6,157.9z"></path><path class="st14" d="M289.9,165.4c-1.2,0.8-1.2,20.3,4.4,22.7c7.2,3.1,13-5.4,13.7-10S304.2,156.3,289.9,165.4z"></path><path class="st12" d="M328.1,196.8c-0.9-0.8-2.1-1.5-2.6-2.6c-0.4-1.3-0.5-2.7-0.5-4c-0.2-3.3-1-6.8-4.1-8.6
		c-1.9-1.1-4.7-0.1-6.3-1.9c-1.8-2-1.2-5-1.5-7.4c-1.3-12.8-20.1-15.1-26.1-4.7c-2,3.4-1,7.8,2.2,10c0.9,0.6,1.9,1,3,1.2
		c1.5,0.2,3.1,0.2,3.7,1.9c1,2.5-0.8,5.1-1.7,7.4c-1.4,3.5-1.9,8.5,1.5,11c1.6,1.2,3.6,1.4,5.5,2c0.8,0.2,1.6,0.6,2.1,1.2
		c0.9,1.1,0.3,2.7,0.1,4c-0.1,0.7-0.1,1.4,0,2.1c-0.2,1.3,0.1,2.6,1,3.6c2,2.5,5.8,2.6,8.7,2.4c3.4-0.2,6.8-1,10-2.4
		c2.8-1.2,6.2-3.2,7.6-6C332.6,202.5,330.7,199,328.1,196.8z"></path><path class="st15" d="M296.2,214c0,4-0.7,7.9-1.8,11.7c-1,3.5-3.2,6.4-6.3,8.3c-0.6,0.4,0,1.4,0.6,1c3.1-1.8,5.4-4.7,6.5-8.1
		c1.4-4.1,2.1-8.5,2.2-12.9c0-0.3-0.3-0.6-0.6-0.6C296.4,213.4,296.2,213.7,296.2,214z"></path></g></svg>